<svg xmlns="http://www.w3.org/2000/svg" viewBox="0 0 600 800" width="600" height="800">
  <defs>
    <linearGradient id="bg-wide-leg-trousers" x1="0" y1="0" x2="0.3" y2="1">
      <stop offset="0" stop-color="#f5efe8"/>
      <stop offset="1" stop-color="#ded6cc"/>
    </linearGradient>
    <linearGradient id="cloth-wide-leg-trousers" x1="0.15" y1="0" x2="0.85" y2="1">
      <stop offset="0" stop-color="#4d4a47"/>
      <stop offset="0.5" stop-color="#2b2724"/>
      <stop offset="1" stop-color="#221f1d"/>
    </linearGradient>
    <linearGradient id="cloth2-wide-leg-trousers" x1="0" y1="0" x2="1" y2="1">
      <stop offset="0" stop-color="#282522"/>
      <stop offset="1" stop-color="#1e1b19"/>
    </linearGradient>
    <radialGradient id="vig-wide-leg-trousers" cx="0.5" cy="0.42" r="0.75">
      <stop offset="0.55" stop-color="#000" stop-opacity="0"/>
      <stop offset="1" stop-color="#3a2c22" stop-opacity="0.13"/>
    </radialGradient>
    <filter id="soft-wide-leg-trousers" x="-30%" y="-30%" width="160%" height="160%">
      <feGaussianBlur stdDeviation="14"/>
    </filter>
    <filter id="drop-wide-leg-trousers" x="-25%" y="-25%" width="150%" height="150%">
      <feDropShadow dx="0" dy="10" stdDeviation="12" flood-color="#3a2c22" flood-opacity="0.18"/>
    </filter>
  </defs>
  <rect width="600" height="800" fill="url(#bg-wide-leg-trousers)"/>
  <g transform="translate(300 430) scale(1.2) translate(-300 -430)">
    <ellipse cx="300" cy="648" rx="196" ry="44" fill="#3a2c22" opacity="0.10" filter="url(#soft-wide-leg-trousers)"/>
    <g filter="url(#drop-wide-leg-trousers)">
  <path d="M204 210 L396 210 L404 292 Q404 300 396 300 L204 300 Q196 300 196 292 Z" fill="url(#cloth2-wide-leg-trousers)"/>
  <path d="M199 296 L401 296 L438 660 Q440 676 420 678 L346 678 Q332 678 330 664 L300 400 L270 664 Q268 678 254 678 L180 678 Q160 676 162 660 Z" fill="url(#cloth-wide-leg-trousers)"/>
  <path d="M300 300 L300 400" fill="none" stroke="#ffffff" stroke-opacity="0.3" stroke-width="2" stroke-linecap="round"/>
  <path d="M232 320 Q222 500 210 660" fill="none" stroke="#ffffff" stroke-opacity="0.3" stroke-width="2" stroke-linecap="round"/>
  <path d="M368 320 Q378 500 390 660" fill="none" stroke="#ffffff" stroke-opacity="0.3" stroke-width="2" stroke-linecap="round"/>
  <path d="M204 236 L396 236" fill="none" stroke="#000" stroke-opacity="0.16" stroke-width="1.6" stroke-dasharray="6 5" stroke-linecap="round"/>
  <rect x="282" y="222" width="36" height="18" rx="4" fill="#000" fill-opacity="0.14"/>
  <g fill="none" stroke="#000" stroke-opacity="0.13" stroke-width="2">
    <path d="M226 318 Q244 340 262 322"/><path d="M338 322 Q356 340 374 318"/>
  </g></g>
  </g>
  <rect width="600" height="800" fill="url(#vig-wide-leg-trousers)"/>
</svg>
